<?xml version="1.0"?>
<svg xmlns="http://www.w3.org/2000/svg" xmlns:xlink="http://www.w3.org/1999/xlink" version="1.1" x="0px" y="0px" viewBox="0 0 100 80" enable-background="new 0 0 100 100" xml:space="preserve">
  <path fill-rule="evenodd" clip-rule="evenodd" d="M92.169,33.455l-5.6-5.6h2.142c1.888,0,3.437-1.569,3.437-3.457v-2.1  c0-0.742-0.594-1.335-1.338-1.335h-6.384h-6.003h-5.982L62.07,37.57H36.617c-2.695,0-5.113,1.166-6.811,2.99h-7.572L7.132,56.129  l5.833-2.397l0.891,4.942l10.627-15.419h2.587c-0.614,0.657-1.038,1.506-1.125,2.397l-1.187,10.669  c-0.127,1.06,0.212,2.015,0.87,2.695l-4.582,5.195l-4.199,14.679h4.199l3.223-12.005l7.085-5.621l1.824,6.277l7.263,11.498h5.686  l-7.582-12.855l1.633-8.844H57.53l-4.582,21.699h4.328l7.763-21.636l11.093,21.636h4.347L71.615,54.75  c1.76-1.698,2.863-4.072,2.863-6.702v-1.189v-0.021l4.815-12.514l5.98,6.003c0.934,0.933,2.462,0.933,3.394,0l3.5-3.478  C93.101,35.916,93.101,34.389,92.169,33.455z M84.75,30.688c-0.449,0-0.812-0.364-0.812-0.812s0.364-0.812,0.812-0.812  s0.812,0.364,0.812,0.812S85.199,30.688,84.75,30.688z"/>
  <text x="0" y="120" fill="#000000" font-size="5px" font-weight="bold" font-family="'Helvetica Neue', Helvetica, Arial-Unicode, Arial, Sans-serif">from the Noun Project</text></svg>
